<svg xmlns="http://www.w3.org/2000/svg" xmlns:xlink="http://www.w3.org/1999/xlink" width="500" zoomAndPan="magnify" viewBox="0 0 375 374.999991" height="500" preserveAspectRatio="xMidYMid meet" version="1.0"><defs><clipPath id="id1"><path d="M 23.121094 0 L 44 0 L 44 20 L 23.121094 20 Z M 23.121094 0 " clip-rule="nonzero"/></clipPath><clipPath id="id2"><path d="M 247 215 L 282.316406 215 L 282.316406 250 L 247 250 Z M 247 215 " clip-rule="nonzero"/></clipPath><clipPath id="id3"><path d="M 149 191.625 L 257 191.625 L 257 298.40625 L 149 298.40625 Z M 149 191.625 " clip-rule="nonzero"/></clipPath></defs><path fill="#f9a72b" d="M 122.90625 297.882812 C 102.675781 277.640625 102.675781 203.640625 122.90625 183.402344 C 125.808594 180.5 129.507812 177.851562 133.835938 175.46875 C 125.9375 178.738281 119.382812 182.679688 114.800781 187.261719 C 94.570312 207.5 94.570312 281.5 114.800781 301.742188 C 140.882812 327.828125 230.835938 333.136719 269.363281 311.550781 C 227.550781 328.503906 147.296875 322.277344 122.90625 297.882812 " fill-opacity="1" fill-rule="nonzero"/><path fill="#f1511b" d="M 296.878906 309.785156 C 266.65625 347.207031 138.507812 343.804688 104.5 309.785156 C 81.15625 286.4375 81.15625 201.054688 104.5 177.703125 C 138.507812 143.6875 266.65625 140.285156 296.878906 177.703125 C 317.632812 203.386719 317.632812 284.105469 296.878906 309.785156 Z M 73.59375 303.523438 C 68.210938 303.523438 63.84375 299.160156 63.84375 293.773438 C 63.84375 288.390625 68.210938 284.027344 73.59375 284.027344 C 78.976562 284.027344 83.339844 288.390625 83.339844 293.773438 C 83.339844 299.160156 78.976562 303.523438 73.59375 303.523438 Z M 71.011719 258.152344 C 76.394531 258.152344 80.757812 262.519531 80.757812 267.902344 C 80.757812 273.289062 76.394531 277.652344 71.011719 277.652344 C 65.628906 277.652344 61.265625 273.289062 61.265625 267.902344 C 61.265625 262.519531 65.628906 258.152344 71.011719 258.152344 Z M 303.46875 174.175781 C 266.269531 128.128906 108.578125 132.3125 66.726562 174.175781 C 38.003906 202.910156 38.003906 307.980469 66.726562 336.710938 C 108.578125 378.574219 266.269531 382.761719 303.46875 336.710938 C 329 305.105469 329 205.78125 303.46875 174.175781 " fill-opacity="1" fill-rule="nonzero"/><path fill="#f1511b" d="M 167.113281 143.953125 L 244.882812 71.308594 L 172.257812 149.097656 Z M 167.113281 143.953125 " fill-opacity="1" fill-rule="nonzero"/><path fill="#f1511b" d="M 167.113281 149.097656 L 33.195312 10 L 172.257812 143.953125 Z M 167.113281 149.097656 " fill-opacity="1" fill-rule="nonzero"/><path fill="#f1511b" d="M 254.871094 71.308594 C 254.871094 76.828125 250.398438 81.300781 244.882812 81.300781 C 239.363281 81.300781 234.894531 76.828125 234.894531 71.308594 C 234.894531 65.792969 239.363281 61.316406 244.882812 61.316406 C 250.398438 61.316406 254.871094 65.792969 254.871094 71.308594 " fill-opacity="1" fill-rule="nonzero"/><g clip-path="url(#id1)"><path fill="#f1511b" d="M 43.183594 10 C 43.183594 15.519531 38.710938 19.992188 33.195312 19.992188 C 27.679688 19.992188 23.207031 15.519531 23.207031 10 C 23.207031 4.480469 27.679688 0.0078125 33.195312 0.0078125 C 38.710938 0.0078125 43.183594 4.480469 43.183594 10 " fill-opacity="1" fill-rule="nonzero"/></g><path fill="#f1511b" d="M 124.695312 232.671875 C 124.695312 241.777344 132.074219 249.15625 141.175781 249.15625 C 150.269531 249.15625 157.648438 241.777344 157.648438 232.671875 C 157.648438 223.566406 150.269531 216.1875 141.175781 216.1875 C 132.074219 216.1875 124.695312 223.566406 124.695312 232.671875 " fill-opacity="1" fill-rule="nonzero"/><path fill="#fffdf5" d="M 124.695312 232.671875 L 124.050781 232.671875 C 124.054688 242.132812 131.71875 249.800781 141.175781 249.800781 C 150.628906 249.800781 158.292969 242.132812 158.292969 232.671875 C 158.292969 223.210938 150.628906 215.542969 141.175781 215.542969 C 131.71875 215.542969 124.054688 223.210938 124.050781 232.671875 L 125.339844 232.671875 C 125.34375 228.296875 127.113281 224.339844 129.980469 221.46875 C 132.84375 218.605469 136.800781 216.832031 141.175781 216.832031 C 145.546875 216.832031 149.5 218.605469 152.367188 221.46875 C 155.230469 224.339844 157.003906 228.296875 157.003906 232.671875 C 157.003906 237.046875 155.230469 241.003906 152.367188 243.871094 C 149.5 246.738281 145.546875 248.511719 141.175781 248.511719 C 136.800781 248.511719 132.84375 246.738281 129.980469 243.871094 C 127.113281 241.003906 125.34375 237.046875 125.339844 232.671875 L 124.695312 232.671875 " fill-opacity="1" fill-rule="nonzero"/><path fill="#f1511b" d="M 129.546875 232.671875 C 129.546875 239.003906 134.675781 244.140625 141.007812 244.140625 C 147.335938 244.140625 152.464844 239.003906 152.464844 232.671875 C 152.464844 226.339844 147.335938 221.203125 141.007812 221.203125 C 134.675781 221.203125 129.546875 226.339844 129.546875 232.671875 " fill-opacity="1" fill-rule="nonzero"/><path fill="#fffdf5" d="M 129.546875 232.671875 L 128.898438 232.671875 C 128.902344 239.363281 134.320312 244.785156 141.007812 244.785156 C 147.691406 244.785156 153.109375 239.363281 153.109375 232.671875 C 153.109375 225.984375 147.691406 220.558594 141.007812 220.558594 C 134.320312 220.558594 128.902344 225.984375 128.898438 232.671875 L 130.191406 232.671875 C 130.191406 229.683594 131.398438 226.980469 133.359375 225.019531 C 135.316406 223.058594 138.019531 221.847656 141.007812 221.847656 C 143.996094 221.847656 146.695312 223.058594 148.652344 225.019531 C 150.613281 226.980469 151.820312 229.683594 151.820312 232.671875 C 151.820312 235.664062 150.613281 238.367188 148.652344 240.324219 C 146.695312 242.285156 143.996094 243.496094 141.007812 243.496094 C 138.019531 243.496094 135.316406 242.285156 133.359375 240.324219 C 131.398438 238.367188 130.191406 235.664062 130.191406 232.671875 L 129.546875 232.671875 " fill-opacity="1" fill-rule="nonzero"/><path fill="#f1511b" d="M 248.609375 232.671875 C 248.609375 241.777344 255.988281 249.15625 265.085938 249.15625 C 274.183594 249.15625 281.558594 241.777344 281.558594 232.671875 C 281.558594 223.566406 274.183594 216.1875 265.085938 216.1875 C 255.988281 216.1875 248.609375 223.566406 248.609375 232.671875 " fill-opacity="1" fill-rule="nonzero"/><g clip-path="url(#id2)"><path fill="#fffdf5" d="M 248.609375 232.671875 L 247.964844 232.671875 C 247.964844 242.132812 255.632812 249.800781 265.085938 249.800781 C 274.539062 249.800781 282.203125 242.132812 282.203125 232.671875 C 282.203125 223.210938 274.539062 215.542969 265.085938 215.542969 C 255.632812 215.542969 247.964844 223.210938 247.964844 232.671875 L 249.253906 232.671875 C 249.253906 228.296875 251.027344 224.339844 253.890625 221.46875 C 256.757812 218.605469 260.710938 216.832031 265.085938 216.832031 C 269.457031 216.832031 273.410156 218.605469 276.277344 221.46875 C 279.140625 224.339844 280.914062 228.296875 280.914062 232.671875 C 280.914062 237.046875 279.140625 241.003906 276.277344 243.871094 C 273.410156 246.738281 269.457031 248.511719 265.085938 248.511719 C 260.710938 248.511719 256.757812 246.738281 253.890625 243.871094 C 251.027344 241.003906 249.253906 237.046875 249.253906 232.671875 L 248.609375 232.671875 " fill-opacity="1" fill-rule="nonzero"/></g><path fill="#f1511b" d="M 253.457031 232.671875 C 253.457031 239.003906 258.585938 244.140625 264.917969 244.140625 C 271.246094 244.140625 276.378906 239.003906 276.378906 232.671875 C 276.378906 226.339844 271.246094 221.203125 264.917969 221.203125 C 258.585938 221.203125 253.457031 226.339844 253.457031 232.671875 " fill-opacity="1" fill-rule="nonzero"/><path fill="#fffdf5" d="M 253.457031 232.671875 L 252.8125 232.671875 C 252.8125 239.363281 258.230469 244.785156 264.917969 244.785156 C 271.605469 244.785156 277.023438 239.363281 277.023438 232.671875 C 277.023438 225.984375 271.605469 220.558594 264.917969 220.558594 C 258.230469 220.558594 252.8125 225.984375 252.8125 232.671875 L 254.101562 232.671875 C 254.101562 229.683594 255.3125 226.980469 257.269531 225.019531 C 259.230469 223.058594 261.929688 221.847656 264.917969 221.847656 C 267.90625 221.847656 270.605469 223.058594 272.566406 225.019531 C 274.523438 226.980469 275.734375 229.683594 275.734375 232.671875 C 275.734375 235.664062 274.523438 238.367188 272.566406 240.324219 C 270.605469 242.285156 267.90625 243.496094 264.917969 243.496094 C 261.929688 243.496094 259.230469 242.285156 257.269531 240.324219 C 255.3125 238.367188 254.101562 235.664062 254.101562 232.671875 L 253.457031 232.671875 " fill-opacity="1" fill-rule="nonzero"/><path fill="#f1511b" d="M 255.433594 245.035156 C 255.433594 274.171875 231.832031 297.792969 202.71875 297.792969 C 173.601562 297.792969 150 274.171875 150 245.035156 C 150 215.902344 173.601562 192.285156 202.71875 192.285156 C 231.832031 192.285156 255.433594 215.902344 255.433594 245.035156 " fill-opacity="1" fill-rule="nonzero"/><g clip-path="url(#id3)"><path fill="#fffdf5" d="M 255.433594 245.035156 L 254.789062 245.035156 C 254.789062 259.425781 248.964844 272.449219 239.539062 281.882812 C 230.113281 291.3125 217.101562 297.144531 202.71875 297.148438 C 188.335938 297.144531 175.324219 291.3125 165.898438 281.882812 C 156.472656 272.449219 150.648438 259.429688 150.644531 245.035156 C 150.648438 230.644531 156.472656 217.621094 165.898438 208.191406 C 175.324219 198.761719 188.335938 192.929688 202.71875 192.929688 C 217.101562 192.929688 230.113281 198.761719 239.539062 208.191406 C 248.964844 217.621094 254.789062 230.644531 254.789062 245.035156 L 256.078125 245.035156 C 256.078125 215.546875 232.191406 191.640625 202.71875 191.640625 C 173.246094 191.640625 149.359375 215.546875 149.355469 245.035156 C 149.359375 274.527344 173.246094 298.433594 202.71875 298.4375 C 232.191406 298.433594 256.078125 274.527344 256.078125 245.035156 L 255.433594 245.035156 " fill-opacity="1" fill-rule="nonzero"/></g><path fill="#f1511b" d="M 248.644531 251.539062 C 251 274.019531 225.421875 293.453125 202.828125 293.453125 C 180.238281 293.453125 156.726562 274.070312 158.550781 251.539062 C 159.46875 240.183594 161.859375 233.167969 165.363281 227.941406 C 181.945312 203.230469 202.769531 221.914062 202.769531 221.914062 C 202.769531 221.914062 223.589844 203.785156 241.644531 227.570312 C 245.535156 232.699219 247.410156 239.710938 248.644531 251.539062 " fill-opacity="1" fill-rule="nonzero"/><path fill="#fffdf5" d="M 248.644531 251.539062 L 248.003906 251.605469 C 248.105469 252.550781 248.152344 253.496094 248.152344 254.429688 C 248.152344 259.613281 246.667969 264.59375 244.089844 269.167969 C 240.230469 276.027344 233.910156 281.945312 226.550781 286.144531 C 219.195312 290.339844 210.800781 292.808594 202.828125 292.808594 C 192.125 292.8125 181.160156 288.371094 172.898438 281.285156 C 168.765625 277.742188 165.3125 273.542969 162.894531 268.921875 C 160.476562 264.296875 159.09375 259.253906 159.09375 254.003906 C 159.09375 253.203125 159.125 252.398438 159.191406 251.589844 C 159.648438 245.945312 160.46875 241.398438 161.601562 237.625 C 162.738281 233.855469 164.183594 230.859375 165.898438 228.300781 C 169.15625 223.449219 172.554688 220.328125 175.890625 218.414062 C 179.230469 216.503906 182.519531 215.789062 185.601562 215.789062 C 190.257812 215.789062 194.453125 217.433594 197.484375 219.09375 C 198.996094 219.925781 200.21875 220.753906 201.054688 221.375 C 201.476562 221.6875 201.800781 221.945312 202.015625 222.121094 C 202.125 222.210938 202.207031 222.28125 202.261719 222.328125 L 202.320312 222.378906 L 202.335938 222.394531 C 202.578125 222.609375 202.945312 222.613281 203.191406 222.402344 L 203.195312 222.398438 C 203.285156 222.324219 205.183594 220.699219 208.257812 219.105469 C 211.335938 217.507812 215.578125 215.945312 220.351562 215.949219 C 223.535156 215.949219 226.960938 216.636719 230.472656 218.476562 C 233.988281 220.316406 237.601562 223.308594 241.128906 227.960938 C 243.019531 230.449219 244.425781 233.402344 245.519531 237.21875 C 246.613281 241.035156 247.390625 245.714844 248.003906 251.605469 L 248.644531 251.539062 L 249.285156 251.46875 C 248.667969 245.539062 247.882812 240.792969 246.757812 236.867188 C 245.632812 232.9375 244.160156 229.816406 242.15625 227.179688 C 238.535156 222.40625 234.777344 219.269531 231.070312 217.332031 C 227.367188 215.394531 223.722656 214.660156 220.351562 214.660156 C 215.210938 214.660156 210.722656 216.355469 207.511719 218.039062 C 204.304688 219.722656 202.371094 221.40625 202.34375 221.429688 L 202.769531 221.914062 L 203.199219 221.433594 C 203.171875 221.410156 201.253906 219.691406 198.101562 217.964844 C 194.953125 216.238281 190.566406 214.503906 185.601562 214.5 C 182.320312 214.5 178.789062 215.265625 175.25 217.292969 C 171.714844 219.320312 168.171875 222.597656 164.832031 227.578125 C 163.039062 230.25 161.535156 233.375 160.367188 237.253906 C 159.203125 241.136719 158.367188 245.777344 157.90625 251.484375 C 157.835938 252.328125 157.804688 253.167969 157.804688 254.003906 C 157.804688 259.480469 159.25 264.734375 161.753906 269.519531 C 165.507812 276.699219 171.636719 282.832031 178.890625 287.183594 C 186.148438 291.53125 194.535156 294.097656 202.828125 294.097656 C 213.8125 294.09375 225.421875 289.59375 234.324219 282.40625 C 238.773438 278.808594 242.546875 274.539062 245.214844 269.800781 C 247.882812 265.066406 249.441406 259.863281 249.441406 254.429688 C 249.441406 253.449219 249.390625 252.464844 249.285156 251.46875 L 248.644531 251.539062 " fill-opacity="1" fill-rule="nonzero"/><path fill="#f1511b" d="M 192.367188 249.15625 C 192.367188 250.675781 191.140625 251.90625 189.621094 251.90625 C 188.105469 251.90625 186.875 250.675781 186.875 249.15625 C 186.875 247.640625 188.105469 246.410156 189.621094 246.410156 C 191.140625 246.410156 192.367188 247.640625 192.367188 249.15625 " fill-opacity="1" fill-rule="nonzero"/><path fill="#fffdf5" d="M 192.367188 249.15625 L 191.722656 249.15625 C 191.722656 249.738281 191.488281 250.261719 191.105469 250.644531 C 190.722656 251.027344 190.203125 251.261719 189.621094 251.261719 C 189.039062 251.261719 188.519531 251.027344 188.136719 250.644531 C 187.753906 250.261719 187.519531 249.738281 187.519531 249.15625 C 187.519531 248.574219 187.753906 248.054688 188.136719 247.671875 C 188.519531 247.289062 189.039062 247.054688 189.621094 247.054688 C 190.203125 247.054688 190.722656 247.289062 191.105469 247.671875 C 191.488281 248.054688 191.722656 248.574219 191.722656 249.15625 L 193.011719 249.15625 C 193.011719 247.285156 191.496094 245.765625 189.621094 245.765625 C 187.746094 245.765625 186.230469 247.28125 186.230469 249.15625 C 186.230469 251.03125 187.746094 252.550781 189.621094 252.550781 C 191.496094 252.550781 193.011719 251.03125 193.011719 249.15625 L 192.367188 249.15625 " fill-opacity="1" fill-rule="nonzero"/><path fill="#f1511b" d="M 218.542969 249.15625 C 218.542969 250.675781 217.3125 251.90625 215.796875 251.90625 C 214.28125 251.90625 213.050781 250.675781 213.050781 249.15625 C 213.050781 247.640625 214.28125 246.410156 215.796875 246.410156 C 217.3125 246.410156 218.542969 247.640625 218.542969 249.15625 " fill-opacity="1" fill-rule="nonzero"/><path fill="#fffdf5" d="M 218.542969 249.15625 L 217.898438 249.15625 C 217.898438 249.738281 217.664062 250.261719 217.285156 250.644531 C 216.902344 251.027344 216.378906 251.261719 215.796875 251.261719 C 215.214844 251.261719 214.695312 251.027344 214.3125 250.644531 C 213.929688 250.261719 213.699219 249.738281 213.695312 249.15625 C 213.699219 248.574219 213.929688 248.054688 214.3125 247.671875 C 214.695312 247.289062 215.214844 247.054688 215.796875 247.054688 C 216.378906 247.054688 216.902344 247.289062 217.285156 247.671875 C 217.664062 248.054688 217.898438 248.574219 217.898438 249.15625 L 219.1875 249.15625 C 219.1875 247.28125 217.667969 245.765625 215.796875 245.765625 C 213.925781 245.765625 212.410156 247.28125 212.40625 249.15625 C 212.410156 251.03125 213.925781 252.550781 215.796875 252.550781 C 217.667969 252.550781 219.1875 251.03125 219.1875 249.15625 L 218.542969 249.15625 " fill-opacity="1" fill-rule="nonzero"/><path fill="#f1511b" d="M 204.171875 273.792969 C 204.171875 272.191406 204.171875 270.59375 204.171875 268.992188 C 204.171875 268.265625 203.039062 268.265625 203.039062 268.992188 C 203.039062 270.59375 203.039062 272.191406 203.039062 273.792969 C 203.039062 274.519531 204.171875 274.519531 204.171875 273.792969 " fill-opacity="1" fill-rule="nonzero"/><path fill="#fffdf5" d="M 204.171875 273.792969 L 204.816406 273.792969 C 204.816406 272.191406 204.816406 270.59375 204.816406 268.992188 C 204.816406 268.820312 204.78125 268.644531 204.710938 268.488281 C 204.605469 268.253906 204.421875 268.070312 204.226562 267.960938 C 204.027344 267.851562 203.816406 267.800781 203.605469 267.800781 C 203.328125 267.800781 203.039062 267.886719 202.796875 268.09375 C 202.675781 268.195312 202.570312 268.332031 202.503906 268.488281 C 202.429688 268.644531 202.394531 268.820312 202.394531 268.992188 C 202.394531 270.59375 202.394531 272.191406 202.394531 273.792969 C 202.394531 273.964844 202.429688 274.140625 202.503906 274.296875 C 202.605469 274.53125 202.789062 274.714844 202.984375 274.824219 C 203.183594 274.933594 203.394531 274.980469 203.605469 274.980469 C 203.882812 274.980469 204.171875 274.898438 204.414062 274.691406 C 204.535156 274.585938 204.640625 274.453125 204.710938 274.296875 C 204.78125 274.140625 204.816406 273.964844 204.816406 273.792969 L 203.527344 273.792969 L 203.65625 273.804688 L 203.578125 273.707031 L 203.527344 273.792969 L 203.65625 273.804688 L 203.578125 273.707031 L 203.628906 273.769531 L 203.605469 273.691406 L 203.578125 273.707031 L 203.628906 273.769531 L 203.605469 273.691406 L 203.609375 273.707031 L 203.605469 273.691406 L 203.609375 273.707031 L 203.605469 273.691406 L 203.589844 273.777344 L 203.648438 273.722656 L 203.605469 273.691406 L 203.589844 273.777344 L 203.648438 273.722656 L 203.539062 273.824219 L 203.679688 273.769531 L 203.648438 273.722656 L 203.539062 273.824219 L 203.679688 273.769531 L 203.585938 273.804688 L 203.683594 273.789062 L 203.679688 273.769531 L 203.585938 273.804688 L 203.683594 273.789062 L 203.648438 273.796875 L 203.683594 273.792969 L 203.683594 273.789062 L 203.648438 273.796875 L 203.683594 273.792969 C 203.683594 272.191406 203.683594 270.59375 203.683594 268.992188 L 203.554688 268.976562 L 203.632812 269.078125 L 203.683594 268.992188 L 203.554688 268.976562 L 203.632812 269.078125 L 203.582031 269.011719 L 203.605469 269.089844 L 203.632812 269.078125 L 203.582031 269.011719 L 203.605469 269.089844 L 203.601562 269.074219 L 203.605469 269.09375 L 203.605469 269.089844 L 203.601562 269.074219 L 203.605469 269.09375 L 203.605469 269.089844 L 203.605469 269.09375 L 203.621094 269.007812 L 203.5625 269.0625 L 203.605469 269.09375 L 203.621094 269.007812 L 203.5625 269.0625 L 203.671875 268.960938 L 203.53125 269.011719 L 203.5625 269.0625 L 203.671875 268.960938 L 203.53125 269.011719 L 203.625 268.976562 L 203.527344 268.996094 L 203.53125 269.011719 L 203.625 268.976562 L 203.527344 268.996094 L 203.5625 268.988281 L 203.527344 268.992188 L 203.527344 268.996094 L 203.5625 268.988281 L 203.527344 268.992188 C 203.527344 270.59375 203.527344 272.191406 203.527344 273.792969 L 204.171875 273.792969 " fill-opacity="1" fill-rule="nonzero"/><path fill="#f1511b" d="M 203.054688 273.792969 C 202.957031 279.046875 207.507812 282.613281 212.339844 283.417969 C 220.332031 284.75 226.449219 278.085938 229.773438 271.679688 C 230.109375 271.03125 229.132812 270.457031 228.796875 271.105469 C 225.734375 277.007812 220.898438 282.480469 213.753906 282.417969 C 209.03125 282.378906 204.09375 278.808594 204.183594 273.792969 C 204.199219 273.058594 203.066406 273.058594 203.054688 273.792969 " fill-opacity="1" fill-rule="nonzero"/><path fill="#fffdf5" d="M 203.054688 273.792969 L 202.410156 273.777344 C 202.410156 273.835938 202.40625 273.894531 202.40625 273.957031 C 202.40625 276.730469 203.628906 279.078125 205.460938 280.792969 C 207.296875 282.515625 209.726562 283.636719 212.234375 284.054688 C 212.964844 284.175781 213.683594 284.234375 214.390625 284.234375 C 218.074219 284.234375 221.3125 282.632812 223.984375 280.316406 C 226.660156 277.996094 228.796875 274.957031 230.34375 271.972656 L 230.347656 271.972656 C 230.4375 271.796875 230.488281 271.597656 230.484375 271.40625 C 230.484375 271.035156 230.3125 270.722656 230.085938 270.515625 C 229.859375 270.308594 229.570312 270.179688 229.238281 270.175781 C 229.046875 270.175781 228.839844 270.226562 228.65625 270.335938 C 228.472656 270.449219 228.320312 270.617188 228.222656 270.8125 L 228.222656 270.808594 C 226.730469 273.695312 224.808594 276.457031 222.429688 278.472656 C 220.050781 280.488281 217.242188 281.769531 213.875 281.773438 L 213.761719 281.773438 C 211.578125 281.757812 209.3125 280.917969 207.625 279.515625 C 206.78125 278.816406 206.078125 277.976562 205.59375 277.039062 C 205.105469 276.097656 204.828125 275.058594 204.828125 273.929688 C 204.828125 273.886719 204.828125 273.84375 204.828125 273.8125 L 204.828125 273.777344 C 204.828125 273.605469 204.792969 273.433594 204.722656 273.277344 C 204.621094 273.042969 204.4375 272.863281 204.242188 272.753906 C 204.046875 272.644531 203.835938 272.597656 203.628906 272.597656 C 203.351562 272.597656 203.0625 272.683594 202.820312 272.886719 C 202.699219 272.988281 202.59375 273.121094 202.523438 273.277344 C 202.449219 273.433594 202.410156 273.605469 202.410156 273.78125 L 202.410156 273.777344 L 203.054688 273.792969 L 203.699219 273.800781 L 203.578125 273.785156 L 203.648438 273.875 L 203.699219 273.800781 L 203.578125 273.785156 L 203.648438 273.875 L 203.605469 273.820312 L 203.628906 273.886719 L 203.648438 273.875 L 203.605469 273.820312 L 203.628906 273.886719 L 203.628906 273.890625 L 203.644531 273.792969 L 203.578125 273.855469 L 203.628906 273.890625 L 203.644531 273.792969 L 203.578125 273.855469 L 203.699219 273.742188 L 203.546875 273.800781 L 203.578125 273.855469 L 203.699219 273.742188 L 203.546875 273.800781 L 203.652344 273.761719 L 203.539062 273.78125 L 203.546875 273.800781 L 203.652344 273.761719 L 203.539062 273.78125 L 203.589844 273.773438 L 203.539062 273.777344 L 203.539062 273.78125 L 203.589844 273.773438 L 203.539062 273.777344 L 203.539062 273.792969 L 204.183594 273.792969 L 203.539062 273.769531 C 203.539062 273.828125 203.539062 273.878906 203.539062 273.929688 C 203.539062 275.273438 203.871094 276.523438 204.449219 277.632812 C 205.3125 279.296875 206.710938 280.640625 208.347656 281.578125 C 209.988281 282.511719 211.875 283.046875 213.75 283.0625 C 213.789062 283.0625 213.832031 283.0625 213.875 283.0625 C 217.582031 283.066406 220.714844 281.625 223.265625 279.457031 C 225.820312 277.285156 227.820312 274.386719 229.367188 271.402344 L 229.25 271.320312 L 229.316406 271.445312 L 229.367188 271.402344 L 229.25 271.320312 L 229.316406 271.445312 L 229.238281 271.292969 L 229.238281 271.464844 L 229.316406 271.445312 L 229.238281 271.292969 L 229.238281 271.464844 L 229.238281 271.398438 L 229.210938 271.464844 L 229.238281 271.464844 L 229.238281 271.398438 L 229.210938 271.464844 L 229.214844 271.464844 L 229.277344 271.40625 L 229.195312 271.40625 L 229.214844 271.464844 L 229.277344 271.40625 L 229.195312 271.40625 L 229.292969 271.40625 L 229.199219 271.382812 L 229.195312 271.40625 L 229.292969 271.40625 L 229.199219 271.382812 L 229.242188 271.394531 L 229.203125 271.378906 L 229.199219 271.382812 L 229.242188 271.394531 L 229.203125 271.378906 L 229.199219 271.382812 L 229.203125 271.378906 C 227.714844 274.25 225.652344 277.167969 223.144531 279.339844 C 220.625 281.515625 217.691406 282.945312 214.390625 282.945312 C 213.757812 282.945312 213.109375 282.894531 212.445312 282.78125 C 210.171875 282.402344 207.960938 281.375 206.34375 279.855469 C 204.726562 278.328125 203.699219 276.34375 203.695312 273.957031 C 203.695312 273.90625 203.699219 273.855469 203.699219 273.804688 L 203.699219 273.800781 L 203.054688 273.792969 " fill-opacity="1" fill-rule="nonzero"/><path fill="#f1511b" d="M 203.042969 273.792969 C 203.136719 278.730469 198.617188 281.867188 194.113281 282.378906 C 186.8125 283.210938 181.449219 276.921875 178.4375 271.105469 C 178.097656 270.457031 177.121094 271.03125 177.457031 271.679688 C 180.882812 278.285156 186.699219 284.355469 194.738281 283.4375 C 199.644531 282.882812 204.273438 278.964844 204.175781 273.792969 C 204.164062 273.058594 203.03125 273.058594 203.042969 273.792969 " fill-opacity="1" fill-rule="nonzero"/><path fill="#fffdf5" d="M 203.042969 273.792969 L 202.398438 273.800781 C 202.398438 273.847656 202.402344 273.894531 202.402344 273.941406 C 202.398438 275.054688 202.144531 276.050781 201.699219 276.945312 C 201.03125 278.285156 199.921875 279.394531 198.566406 280.214844 C 197.210938 281.035156 195.621094 281.558594 194.039062 281.738281 C 193.625 281.785156 193.214844 281.808594 192.8125 281.808594 C 191.246094 281.808594 189.789062 281.464844 188.425781 280.859375 C 186.378906 279.953125 184.542969 278.453125 182.960938 276.667969 C 181.375 274.886719 180.050781 272.820312 179.007812 270.808594 C 178.90625 270.617188 178.757812 270.449219 178.574219 270.335938 C 178.390625 270.226562 178.183594 270.175781 177.992188 270.175781 C 177.660156 270.179688 177.371094 270.308594 177.144531 270.515625 C 176.917969 270.722656 176.746094 271.035156 176.742188 271.40625 C 176.742188 271.597656 176.792969 271.800781 176.886719 271.980469 L 176.886719 271.972656 C 178.511719 275.109375 180.671875 278.140625 183.375 280.410156 C 186.078125 282.675781 189.359375 284.179688 193.136719 284.175781 C 193.6875 284.175781 194.246094 284.144531 194.8125 284.082031 C 197.382812 283.785156 199.863281 282.632812 201.722656 280.867188 C 203.578125 279.101562 204.824219 276.699219 204.824219 273.949219 C 204.824219 273.890625 204.820312 273.835938 204.820312 273.78125 L 204.820312 273.777344 C 204.816406 273.601562 204.777344 273.429688 204.707031 273.277344 C 204.597656 273.042969 204.414062 272.863281 204.21875 272.757812 C 204.023438 272.648438 203.808594 272.597656 203.601562 272.597656 C 203.324219 272.597656 203.039062 272.683594 202.796875 272.886719 C 202.679688 272.988281 202.574219 273.121094 202.503906 273.277344 C 202.433594 273.433594 202.398438 273.605469 202.398438 273.777344 L 202.402344 273.855469 L 203.042969 273.792969 L 202.398438 273.800781 L 203.042969 273.792969 L 203.6875 273.722656 L 203.160156 273.777344 L 203.6875 273.777344 L 203.6875 273.722656 L 203.160156 273.777344 L 203.6875 273.777344 L 203.546875 273.761719 L 203.628906 273.871094 L 203.6875 273.777344 L 203.546875 273.761719 L 203.628906 273.871094 L 203.574219 273.796875 L 203.601562 273.886719 L 203.628906 273.871094 L 203.574219 273.796875 L 203.601562 273.886719 L 203.59375 273.863281 L 203.597656 273.890625 L 203.601562 273.886719 L 203.59375 273.863281 L 203.597656 273.890625 L 203.601562 273.890625 L 203.601562 273.886719 L 203.601562 273.890625 L 203.601562 273.886719 L 203.632812 273.792969 L 203.554688 273.851562 L 203.601562 273.886719 L 203.632812 273.792969 L 203.554688 273.851562 L 203.660156 273.769531 L 203.535156 273.816406 L 203.554688 273.851562 L 203.660156 273.769531 L 203.535156 273.816406 L 203.609375 273.789062 L 203.53125 273.800781 L 203.535156 273.816406 L 203.609375 273.789062 L 203.53125 273.800781 L 203.53125 273.804688 L 203.53125 273.796875 C 203.53125 273.851562 203.53125 273.902344 203.53125 273.949219 C 203.53125 276.300781 202.480469 278.363281 200.832031 279.929688 C 199.191406 281.496094 196.949219 282.539062 194.664062 282.800781 C 194.144531 282.859375 193.636719 282.886719 193.136719 282.886719 C 189.707031 282.882812 186.738281 281.539062 184.203125 279.417969 C 181.671875 277.300781 179.597656 274.40625 178.03125 271.378906 L 178.027344 271.375 L 177.945312 271.40625 L 178.03125 271.40625 L 178.027344 271.375 L 177.945312 271.40625 L 178.03125 271.40625 L 177.921875 271.40625 L 178.023438 271.453125 L 178.03125 271.40625 L 177.921875 271.40625 L 178.023438 271.453125 L 177.984375 271.4375 L 178.019531 271.464844 L 178.023438 271.453125 L 177.984375 271.4375 L 178.019531 271.464844 L 177.992188 271.40625 L 177.992188 271.464844 L 178.019531 271.464844 L 177.992188 271.40625 L 177.992188 271.464844 L 177.992188 271.292969 L 177.902344 271.4375 L 177.992188 271.464844 L 177.992188 271.292969 L 177.902344 271.4375 L 177.984375 271.304688 L 177.867188 271.414062 L 177.902344 271.4375 L 177.984375 271.304688 L 177.867188 271.414062 L 177.929688 271.355469 L 177.863281 271.402344 L 177.867188 271.414062 L 177.929688 271.355469 L 177.863281 271.402344 C 179.304688 274.1875 181.273438 277.082031 183.765625 279.308594 C 185.011719 280.421875 186.390625 281.371094 187.902344 282.039062 C 189.414062 282.707031 191.054688 283.097656 192.8125 283.097656 C 193.261719 283.097656 193.722656 283.074219 194.183594 283.019531 C 196.535156 282.75 198.878906 281.816406 200.671875 280.277344 C 201.566406 279.507812 202.324219 278.585938 202.851562 277.523438 C 203.386719 276.457031 203.691406 275.253906 203.691406 273.941406 C 203.691406 273.886719 203.6875 273.832031 203.6875 273.78125 L 203.6875 273.722656 L 203.042969 273.792969 " fill-opacity="1" fill-rule="nonzero"/><path fill="#f1511b" d="M 212.398438 260.890625 C 212.398438 264.128906 207.882812 268.855469 203.605469 268.855469 C 199.332031 268.855469 194.8125 264.128906 194.8125 260.890625 C 194.8125 257.648438 199.332031 257.125 203.605469 257.125 C 207.882812 257.125 212.398438 257.648438 212.398438 260.890625 " fill-opacity="1" fill-rule="nonzero"/><path fill="#fffdf5" d="M 212.398438 260.890625 L 211.753906 260.890625 C 211.757812 261.546875 211.515625 262.359375 211.0625 263.191406 C 210.382812 264.4375 209.238281 265.71875 207.894531 266.664062 C 206.554688 267.609375 205.027344 268.214844 203.605469 268.210938 C 202.65625 268.210938 201.664062 267.945312 200.707031 267.488281 C 199.273438 266.796875 197.933594 265.667969 196.976562 264.4375 C 196.496094 263.824219 196.109375 263.183594 195.851562 262.574219 C 195.589844 261.964844 195.457031 261.382812 195.457031 260.890625 C 195.457031 260.558594 195.511719 260.28125 195.613281 260.039062 C 195.785156 259.617188 196.09375 259.269531 196.570312 258.964844 C 197.277344 258.507812 198.34375 258.191406 199.582031 258.007812 C 200.820312 257.824219 202.21875 257.769531 203.605469 257.769531 C 205.714844 257.765625 207.871094 257.90625 209.410156 258.40625 C 210.179688 258.652344 210.78125 258.984375 211.164062 259.382812 C 211.359375 259.582031 211.503906 259.796875 211.601562 260.039062 C 211.699219 260.28125 211.753906 260.558594 211.753906 260.890625 L 213.042969 260.890625 C 213.042969 260.410156 212.960938 259.957031 212.792969 259.554688 C 212.507812 258.839844 211.980469 258.285156 211.339844 257.878906 C 210.378906 257.265625 209.15625 256.933594 207.820312 256.734375 C 206.484375 256.535156 205.027344 256.476562 203.605469 256.476562 C 201.441406 256.480469 199.199219 256.605469 197.410156 257.175781 C 196.515625 257.46875 195.71875 257.871094 195.121094 258.484375 C 194.824219 258.789062 194.582031 259.148438 194.417969 259.554688 C 194.253906 259.957031 194.167969 260.410156 194.167969 260.890625 C 194.171875 261.851562 194.496094 262.84375 195.019531 263.8125 C 195.8125 265.257812 197.074219 266.65625 198.574219 267.71875 C 200.074219 268.773438 201.824219 269.5 203.605469 269.503906 C 204.796875 269.5 205.96875 269.175781 207.0625 268.648438 C 208.707031 267.855469 210.171875 266.613281 211.253906 265.230469 C 211.792969 264.539062 212.234375 263.8125 212.546875 263.082031 C 212.859375 262.347656 213.042969 261.609375 213.042969 260.890625 L 212.398438 260.890625 " fill-opacity="1" fill-rule="nonzero"/></svg>